# xmcd
#
# Track frame offsets:
#	150
#	14996
#	30885
#	43371
#	55556
#	70754
#	85308
#	100989
#	115007
#	130049
#	143956
#	157333
#
# Disc length: 2288 seconds
#
# Revision: 0
# Processed by: cddbd v1.5.2PL0 Copyright (c) Steve Scherf et al.
# Submitted via: EasyCDDAExtractor 16.0.6.1
#
DISCID=a408ee0c
DTITLE=Συλλογικός δίσκος - Το φτωχομπούζουκο-LP, Μ. Μπακάλη
DYEAR=1983
DGENRE=Λαϊκή
TTITLE0=Περπινιάδης Βαγγέλης-Γάσπαρη Έφη - Πριν τα τινάξω (Οι κληρονόμοι)
TTITLE1=Περπινιάδης Βαγγέλης - Το φτωχομπούζουκο [Μαν. Χιώτη]
TTITLE2=Πάνου Πόλυ - Ήρθες να μ' αναστατώσεις
TTITLE3=Περπινιάδης Βαγγέλης-Καλάκη Ρούλα - Ούτε τα λεφτά σου, ούτε τα καλά σο
TTITLE3=υ
TTITLE4=Κρυστάλη Σούλα - Θα πεθάνω σ' ένα γλέντι
TTITLE5=Βασιλόπουλος Πάνος - Σα φτερό στον άνεμο [στ. Δ. Γκούτη]
TTITLE6=Καραγιάννης Χάρης - 18 χρονώ βλαστάρι
TTITLE7=Καραγιάννης Χάρης - Γιατί δεν με πρόσεχες [Ν. Καρανικόλα]
TTITLE8=Καραγιάννης Χάρης - Αγάπησα και μίσησα [Π. Πετσά]
TTITLE9=Καραγιάννης Χάρης - Αναστενάζω, δεν μ' ακούς [διασκευή]
TTITLE10=Καραγιάννης Χάρης - Άσε τα καψόνια σου [στ. Αν. Δρακάτου]
TTITLE11=Βασιλόπουλος Πάνος - Υποψίες [Τ. Σούκα]
EXTD=
EXTT0=
EXTT1=
EXTT2=
EXTT3=
EXTT4=
EXTT5=
EXTT6=
EXTT7=
EXTT8=
EXTT9=
EXTT10=
EXTT11=
PLAYORDER=
